<svg width="1927" height="567" viewBox="0 0 1927 567" fill="none" xmlns="http://www.w3.org/2000/svg">
<path  className="fill-zinc-900 dark:fill-white" d="M186.714 201.726C209.22 201.726 228.316 210.592 244.343 227.983C260.37 245.374 268.213 266.516 268.213 291.75C268.213 316.984 260.37 338.467 244.343 355.858C228.316 373.249 209.22 381.774 186.714 381.774C164.89 381.774 147.84 374.954 135.905 360.973V377H84.755V138.3H135.905V222.527C147.84 208.546 164.89 201.726 186.714 201.726ZM147.158 322.099C155.001 329.601 164.549 333.352 176.484 333.352C188.419 333.352 197.967 329.601 205.469 322.099C213.312 314.597 217.063 304.367 217.063 291.75C217.063 279.133 213.312 268.903 205.469 261.401C197.967 253.899 188.419 250.148 176.484 250.148C164.549 250.148 155.001 253.899 147.158 261.401C139.656 268.903 135.905 279.133 135.905 291.75C135.905 304.367 139.656 314.597 147.158 322.099ZM467.032 355.858C449.641 373.249 428.158 381.774 402.924 381.774C377.69 381.774 356.207 373.249 338.816 355.858C321.425 338.467 312.559 316.984 312.559 291.75C312.559 266.516 321.425 245.374 338.816 227.983C356.207 210.592 377.69 201.726 402.924 201.726C428.158 201.726 449.641 210.592 467.032 227.983C484.423 245.374 493.289 266.516 493.289 291.75C493.289 316.984 484.423 338.467 467.032 355.858ZM374.962 320.735C382.464 328.237 391.671 331.988 402.924 331.988C414.177 331.988 423.384 328.237 430.886 320.735C438.388 313.233 442.139 303.685 442.139 291.75C442.139 279.815 438.388 270.267 430.886 262.765C423.384 255.263 414.177 251.512 402.924 251.512C391.671 251.512 382.464 255.263 374.962 262.765C367.46 270.267 363.709 279.815 363.709 291.75C363.709 303.685 367.46 313.233 374.962 320.735ZM692.039 355.858C674.648 373.249 653.165 381.774 627.931 381.774C602.697 381.774 581.214 373.249 563.823 355.858C546.432 338.467 537.566 316.984 537.566 291.75C537.566 266.516 546.432 245.374 563.823 227.983C581.214 210.592 602.697 201.726 627.931 201.726C653.165 201.726 674.648 210.592 692.039 227.983C709.43 245.374 718.296 266.516 718.296 291.75C718.296 316.984 709.43 338.467 692.039 355.858ZM599.969 320.735C607.471 328.237 616.678 331.988 627.931 331.988C639.184 331.988 648.391 328.237 655.893 320.735C663.395 313.233 667.146 303.685 667.146 291.75C667.146 279.815 663.395 270.267 655.893 262.765C648.391 255.263 639.184 251.512 627.931 251.512C616.678 251.512 607.471 255.263 599.969 262.765C592.467 270.267 588.716 279.815 588.716 291.75C588.716 303.685 592.467 313.233 599.969 320.735ZM867.68 206.5V255.604H832.557V315.961C832.557 329.601 842.787 331.988 867.68 330.624V377C835.285 380.41 812.779 377.341 800.162 367.793C787.545 357.904 781.407 340.854 781.407 315.961V255.604H754.127V206.5H781.407V174.105L832.557 158.76V206.5H867.68ZM999.021 381.774C973.105 381.774 951.622 373.249 934.231 355.858C917.181 338.467 908.656 317.325 908.656 291.75C908.656 266.175 917.181 245.033 934.231 227.642C951.622 210.251 973.105 201.726 999.021 201.726C1031.76 201.726 1061.08 219.117 1076.09 245.374L1031.42 271.29C1025.28 258.673 1014.37 252.194 998.339 252.194C976.174 252.194 959.806 268.562 959.806 291.75C959.806 314.938 976.174 331.306 998.339 331.306C1014.37 331.306 1025.62 324.827 1031.42 312.21L1076.09 337.785C1061.08 364.724 1032.1 381.774 999.021 381.774ZM1241 222.527V206.5H1292.15V377H1241V360.973C1229.06 374.954 1212.01 381.774 1190.19 381.774C1167.68 381.774 1148.58 373.249 1132.56 355.858C1116.53 338.467 1108.69 316.984 1108.69 291.75C1108.69 266.516 1116.53 245.374 1132.56 227.983C1148.58 210.592 1167.68 201.726 1190.19 201.726C1212.01 201.726 1229.06 208.546 1241 222.527ZM1171.09 322.099C1178.59 329.601 1188.48 333.352 1200.42 333.352C1212.35 333.352 1222.24 329.601 1229.74 322.099C1237.24 314.597 1241 304.367 1241 291.75C1241 279.133 1237.24 268.903 1229.74 261.401C1222.24 253.899 1212.35 250.148 1200.42 250.148C1188.48 250.148 1178.59 253.899 1171.09 261.401C1163.59 268.903 1159.84 279.133 1159.84 291.75C1159.84 304.367 1163.59 314.597 1171.09 322.099ZM1544.5 201.726C1563.94 201.726 1579.62 208.205 1591.56 221.163C1603.49 233.78 1609.29 250.83 1609.29 272.313V377H1558.14V276.746C1558.14 259.355 1549.62 248.784 1533.59 248.784C1516.88 248.784 1506.99 260.719 1506.99 280.838V377H1455.84V276.746C1455.84 259.355 1447.32 248.784 1431.29 248.784C1414.58 248.784 1404.69 260.719 1404.69 280.838V377H1353.54V206.5H1404.69V222.186C1413.9 208.546 1429.24 201.726 1450.39 201.726C1470.16 201.726 1485.17 209.228 1495.06 224.232C1505.63 209.228 1522 201.726 1544.5 201.726ZM1770.09 201.726C1792.59 201.726 1811.69 210.592 1827.72 227.983C1843.74 245.374 1851.59 266.516 1851.59 291.75C1851.59 316.984 1843.74 338.467 1827.72 355.858C1811.69 373.249 1792.59 381.774 1770.09 381.774C1748.26 381.774 1731.21 374.954 1719.28 360.973V445.2H1668.13V206.5H1719.28V222.527C1731.21 208.546 1748.26 201.726 1770.09 201.726ZM1730.53 322.099C1738.37 329.601 1747.92 333.352 1759.86 333.352C1771.79 333.352 1781.34 329.601 1788.84 322.099C1796.68 314.597 1800.44 304.367 1800.44 291.75C1800.44 279.133 1796.68 268.903 1788.84 261.401C1781.34 253.899 1771.79 250.148 1759.86 250.148C1747.92 250.148 1738.37 253.899 1730.53 261.401C1723.03 268.903 1719.28 279.133 1719.28 291.75C1719.28 304.367 1723.03 314.597 1730.53 322.099Z" fill="#FAFAFA"/>
<path d="M1206.2 421.712C1212.36 421.712 1217.7 424.104 1222.02 428.796C1226.44 433.488 1228.65 439.192 1228.65 446C1228.65 452.808 1226.44 458.604 1222.02 463.296C1217.7 467.988 1212.36 470.288 1206.2 470.288C1199.76 470.288 1194.79 468.08 1191.3 463.572V469H1179.43V404.6H1191.3V428.428C1194.79 423.92 1199.76 421.712 1206.2 421.712ZM1194.88 455.384C1197.28 457.776 1200.31 458.972 1203.99 458.972C1207.67 458.972 1210.71 457.776 1213.1 455.384C1215.58 452.9 1216.78 449.772 1216.78 446C1216.78 442.228 1215.58 439.1 1213.1 436.708C1210.71 434.224 1207.67 433.028 1203.99 433.028C1200.31 433.028 1197.28 434.224 1194.88 436.708C1192.49 439.1 1191.3 442.228 1191.3 446C1191.3 449.772 1192.49 452.9 1194.88 455.384ZM1255 453.912L1265.21 423H1277.91L1261.16 469C1256.38 482.248 1248.65 488.044 1236.88 487.4V476.36C1243.22 476.452 1246.72 473.784 1248.93 467.528L1230.07 423H1243.04L1255 453.912ZM1312.44 417.48C1308.49 417.48 1305.18 414.168 1305.18 410.212C1305.18 406.256 1308.49 402.852 1312.44 402.852C1316.49 402.852 1319.8 406.256 1319.8 410.212C1319.8 414.168 1316.49 417.48 1312.44 417.48ZM1318.42 469H1306.56V423H1318.42V469ZM1354.86 421.712C1359.92 421.712 1364.06 423.368 1367.28 426.772C1370.6 430.176 1372.25 434.776 1372.25 440.756V469H1360.38V442.228C1360.38 436.064 1356.8 432.752 1351.28 432.752C1345.11 432.752 1341.16 436.524 1341.16 444.16V469H1329.29V423H1341.16V428.152C1344.01 423.828 1348.61 421.712 1354.86 421.712ZM1393.33 436.064C1393.33 438.548 1397.01 439.928 1401.71 441.124C1408.42 442.504 1417.16 445.724 1417.07 455.568C1417.07 460.26 1415.32 463.94 1411.73 466.516C1408.24 469 1403.82 470.288 1398.58 470.288C1389.1 470.288 1382.66 466.608 1379.26 459.34L1389.56 453.544C1390.94 457.5 1393.89 459.524 1398.58 459.524C1402.81 459.524 1404.93 458.236 1404.93 455.568C1404.93 453.084 1401.25 451.704 1396.55 450.508C1389.75 448.76 1381.19 445.908 1381.19 436.34C1381.19 431.832 1382.85 428.244 1386.16 425.668C1389.56 423 1393.7 421.712 1398.67 421.712C1406.12 421.712 1412.56 425.208 1416.15 431.464L1406.03 436.984C1404.56 433.856 1402.07 432.292 1398.67 432.292C1395.63 432.292 1393.33 433.764 1393.33 436.064ZM1449.67 423V434.408H1439.27V453.544C1439.27 458.512 1442.86 458.604 1449.67 458.236V469C1433.38 470.84 1427.4 466.148 1427.4 453.544V434.408H1419.4V423H1427.4V413.708L1439.27 410.12V423H1449.67ZM1489.11 447.84V423H1500.98V469H1489.11V463.848C1486.26 468.172 1481.66 470.288 1475.4 470.288C1470.34 470.288 1466.2 468.632 1462.89 465.228C1459.67 461.824 1458.02 457.224 1458.02 451.244V423H1469.88V449.772C1469.88 455.936 1473.47 459.248 1478.99 459.248C1485.16 459.248 1489.11 455.476 1489.11 447.84ZM1546.72 428.428V404.6H1558.59V469H1546.72V463.572C1543.22 468.08 1538.25 470.288 1531.81 470.288C1525.65 470.288 1520.31 467.988 1515.9 463.296C1511.57 458.604 1509.37 452.808 1509.37 446C1509.37 439.192 1511.57 433.488 1515.9 428.796C1520.31 424.104 1525.65 421.712 1531.81 421.712C1538.25 421.712 1543.22 423.92 1546.72 428.428ZM1524.82 455.384C1527.31 457.776 1530.34 458.972 1534.02 458.972C1537.7 458.972 1540.74 457.776 1543.13 455.384C1545.52 452.9 1546.72 449.772 1546.72 446C1546.72 442.228 1545.52 439.1 1543.13 436.708C1540.74 434.224 1537.7 433.028 1534.02 433.028C1530.34 433.028 1527.31 434.224 1524.82 436.708C1522.43 439.1 1521.23 442.228 1521.23 446C1521.23 449.772 1522.43 452.9 1524.82 455.384ZM1575.33 417.48C1571.37 417.48 1568.06 414.168 1568.06 410.212C1568.06 406.256 1571.37 402.852 1575.33 402.852C1579.38 402.852 1582.69 406.256 1582.69 410.212C1582.69 414.168 1579.38 417.48 1575.33 417.48ZM1581.31 469H1569.44V423H1581.31V469ZM1627.13 428.428V423H1639V469H1627.13V463.572C1623.54 468.08 1618.57 470.288 1612.13 470.288C1605.97 470.288 1600.73 467.988 1596.31 463.296C1591.99 458.604 1589.78 452.808 1589.78 446C1589.78 439.192 1591.99 433.488 1596.31 428.796C1600.73 424.104 1605.97 421.712 1612.13 421.712C1618.57 421.712 1623.54 423.92 1627.13 428.428ZM1605.23 455.384C1607.63 457.776 1610.66 458.972 1614.34 458.972C1618.02 458.972 1621.06 457.776 1623.45 455.384C1625.93 452.9 1627.13 449.772 1627.13 446C1627.13 442.228 1625.93 439.1 1623.45 436.708C1621.06 434.224 1618.02 433.028 1614.34 433.028C1610.66 433.028 1607.63 434.224 1605.23 436.708C1602.84 439.1 1601.65 442.228 1601.65 446C1601.65 449.772 1602.84 452.9 1605.23 455.384Z" fill="#FAFAFA"/>
</svg>
